<?xml version="1.0" encoding="UTF-8" standalone="no"?>
<!DOCTYPE svg PUBLIC "-//W3C//DTD SVG 1.1//EN"
 "http://www.w3.org/Graphics/SVG/1.1/DTD/svg11.dtd">
<!-- Generated by graphviz version 2.44.1 (20200629.0846)
 -->
<!-- Title: dependencies Pages: 1 -->
<svg width="504pt" height="211pt"
 viewBox="0.00 0.00 504.00 211.00" xmlns="http://www.w3.org/2000/svg" xmlns:xlink="http://www.w3.org/1999/xlink">
<g id="graph0" class="graph" transform="scale(1 1) rotate(0) translate(4 207)">
<title>dependencies</title>
<polygon fill="white" stroke="transparent" points="-4,4 -4,-207 500,-207 500,4 -4,4"/>
<text text-anchor="start" x="227.01" y="-42.4" font-family="sans-serif" font-weight="bold" font-size="14.00">Legend</text>
<polygon fill="#ffffb3" stroke="transparent" points="14,-10 14,-30 34,-30 34,-10 14,-10"/>
<text text-anchor="start" x="37.63" y="-15.4" font-family="sans-serif" font-size="14.00"> &#160;Declarations</text>
<polygon fill="#8dd3c7" stroke="transparent" points="127,-10 127,-30 147,-30 147,-10 127,-10"/>
<text text-anchor="start" x="150.73" y="-15.4" font-family="sans-serif" font-size="14.00"> &#160;Module</text>
<polygon fill="#80b1d3" stroke="transparent" points="213,-10 213,-30 233,-30 233,-10 213,-10"/>
<text text-anchor="start" x="236.78" y="-15.4" font-family="sans-serif" font-size="14.00"> &#160;Bootstrap</text>
<polygon fill="#fdb462" stroke="transparent" points="310,-10 310,-30 330,-30 330,-10 310,-10"/>
<text text-anchor="start" x="333.67" y="-15.4" font-family="sans-serif" font-size="14.00"> &#160;Providers</text>
<polygon fill="#fb8072" stroke="transparent" points="406,-10 406,-30 426,-30 426,-10 406,-10"/>
<text text-anchor="start" x="429.73" y="-15.4" font-family="sans-serif" font-size="14.00"> &#160;Exports</text>
<g id="clust1" class="cluster">
<title>cluster_SwiperGesturePageModule</title>
<polygon fill="none" stroke="black" stroke-dasharray="1,5" points="49,-70 49,-195 447,-195 447,-70 49,-70"/>
</g>
<g id="clust4" class="cluster">
<title>cluster_SwiperGesturePageModule_imports</title>
<polygon fill="none" stroke="black" points="207,-78 207,-130 439,-130 439,-78 207,-78"/>
</g>
<g id="clust2" class="cluster">
<title>cluster_SwiperGesturePageModule_declarations</title>
<polygon fill="none" stroke="black" points="57,-78 57,-130 199,-130 199,-78 57,-78"/>
</g>
<!-- SwiperGesturePage -->
<g id="node1" class="node">
<title>SwiperGesturePage</title>
<polygon fill="#ffffb3" stroke="black" points="191.4,-122 64.6,-122 64.6,-86 191.4,-86 191.4,-122"/>
<text text-anchor="middle" x="128" y="-99.8" font-family="Times,serif" font-size="14.00">SwiperGesturePage</text>
</g>
<!-- SwiperGesturePageModule -->
<g id="node2" class="node">
<title>SwiperGesturePageModule</title>
<polygon fill="#8dd3c7" stroke="black" points="316.95,-187 313.95,-191 292.95,-191 289.95,-187 147.05,-187 147.05,-151 316.95,-151 316.95,-187"/>
<text text-anchor="middle" x="232" y="-164.8" font-family="Times,serif" font-size="14.00">SwiperGesturePageModule</text>
</g>
<!-- SwiperGesturePage&#45;&gt;SwiperGesturePageModule -->
<g id="edge1" class="edge">
<title>SwiperGesturePage&#45;&gt;SwiperGesturePageModule</title>
<path fill="none" stroke="black" d="M169.11,-122.11C169.11,-122.11 169.11,-140.99 169.11,-140.99"/>
<polygon fill="black" stroke="black" points="165.61,-140.99 169.11,-150.99 172.61,-140.99 165.61,-140.99"/>
</g>
<!-- SwiperGesturePageRoutingModule -->
<g id="node3" class="node">
<title>SwiperGesturePageRoutingModule</title>
<polygon fill="#8dd3c7" stroke="black" points="430.57,-122 427.57,-126 406.57,-126 403.57,-122 215.43,-122 215.43,-86 430.57,-86 430.57,-122"/>
<text text-anchor="middle" x="323" y="-99.8" font-family="Times,serif" font-size="14.00">SwiperGesturePageRoutingModule</text>
</g>
<!-- SwiperGesturePageRoutingModule&#45;&gt;SwiperGesturePageModule -->
<g id="edge2" class="edge">
<title>SwiperGesturePageRoutingModule&#45;&gt;SwiperGesturePageModule</title>
<path fill="none" stroke="black" d="M266.22,-122.11C266.22,-122.11 266.22,-140.99 266.22,-140.99"/>
<polygon fill="black" stroke="black" points="262.72,-140.99 266.22,-150.99 269.72,-140.99 262.72,-140.99"/>
</g>
</g>
</svg>
