<?xml version="1.0" encoding="UTF-8" standalone="no"?>
<!DOCTYPE svg PUBLIC "-//W3C//DTD SVG 1.1//EN"
 "http://www.w3.org/Graphics/SVG/1.1/DTD/svg11.dtd">
<!-- Generated by graphviz version 2.44.1 (20200629.0846)
 -->
<!-- Title: dependencies Pages: 1 -->
<svg width="504pt" height="211pt"
 viewBox="0.00 0.00 504.00 211.00" xmlns="http://www.w3.org/2000/svg" xmlns:xlink="http://www.w3.org/1999/xlink">
<g id="graph0" class="graph" transform="scale(1 1) rotate(0) translate(4 207)">
<title>dependencies</title>
<polygon fill="white" stroke="transparent" points="-4,4 -4,-207 500,-207 500,4 -4,4"/>
<text text-anchor="start" x="227.01" y="-42.4" font-family="sans-serif" font-weight="bold" font-size="14.00">Legend</text>
<polygon fill="#ffffb3" stroke="transparent" points="14,-10 14,-30 34,-30 34,-10 14,-10"/>
<text text-anchor="start" x="37.63" y="-15.4" font-family="sans-serif" font-size="14.00"> &#160;Declarations</text>
<polygon fill="#8dd3c7" stroke="transparent" points="127,-10 127,-30 147,-30 147,-10 127,-10"/>
<text text-anchor="start" x="150.73" y="-15.4" font-family="sans-serif" font-size="14.00"> &#160;Module</text>
<polygon fill="#80b1d3" stroke="transparent" points="213,-10 213,-30 233,-30 233,-10 213,-10"/>
<text text-anchor="start" x="236.78" y="-15.4" font-family="sans-serif" font-size="14.00"> &#160;Bootstrap</text>
<polygon fill="#fdb462" stroke="transparent" points="310,-10 310,-30 330,-30 330,-10 310,-10"/>
<text text-anchor="start" x="333.67" y="-15.4" font-family="sans-serif" font-size="14.00"> &#160;Providers</text>
<polygon fill="#fb8072" stroke="transparent" points="406,-10 406,-30 426,-30 426,-10 406,-10"/>
<text text-anchor="start" x="429.73" y="-15.4" font-family="sans-serif" font-size="14.00"> &#160;Exports</text>
<g id="clust1" class="cluster">
<title>cluster_FirechatPageModule</title>
<polygon fill="none" stroke="black" stroke-dasharray="1,5" points="86,-70 86,-195 410,-195 410,-70 86,-70"/>
</g>
<g id="clust2" class="cluster">
<title>cluster_FirechatPageModule_declarations</title>
<polygon fill="none" stroke="black" points="296,-78 296,-130 402,-130 402,-78 296,-78"/>
</g>
<g id="clust4" class="cluster">
<title>cluster_FirechatPageModule_imports</title>
<polygon fill="none" stroke="black" points="94,-78 94,-130 288,-130 288,-78 94,-78"/>
</g>
<!-- FirechatPage -->
<g id="node1" class="node">
<title>FirechatPage</title>
<polygon fill="#ffffb3" stroke="black" points="393.58,-122 304.42,-122 304.42,-86 393.58,-86 393.58,-122"/>
<text text-anchor="middle" x="349" y="-99.8" font-family="Times,serif" font-size="14.00">FirechatPage</text>
</g>
<!-- FirechatPageModule -->
<g id="node2" class="node">
<title>FirechatPageModule</title>
<polygon fill="#8dd3c7" stroke="black" points="329.13,-187 326.13,-191 305.13,-191 302.13,-187 196.87,-187 196.87,-151 329.13,-151 329.13,-187"/>
<text text-anchor="middle" x="263" y="-164.8" font-family="Times,serif" font-size="14.00">FirechatPageModule</text>
</g>
<!-- FirechatPage&#45;&gt;FirechatPageModule -->
<g id="edge1" class="edge">
<title>FirechatPage&#45;&gt;FirechatPageModule</title>
<path fill="none" stroke="black" d="M316.89,-122.11C316.89,-122.11 316.89,-140.99 316.89,-140.99"/>
<polygon fill="black" stroke="black" points="313.39,-140.99 316.89,-150.99 320.39,-140.99 313.39,-140.99"/>
</g>
<!-- FirechatPageRoutingModule -->
<g id="node3" class="node">
<title>FirechatPageRoutingModule</title>
<polygon fill="#8dd3c7" stroke="black" points="279.75,-122 276.75,-126 255.75,-126 252.75,-122 102.25,-122 102.25,-86 279.75,-86 279.75,-122"/>
<text text-anchor="middle" x="191" y="-99.8" font-family="Times,serif" font-size="14.00">FirechatPageRoutingModule</text>
</g>
<!-- FirechatPageRoutingModule&#45;&gt;FirechatPageModule -->
<g id="edge2" class="edge">
<title>FirechatPageRoutingModule&#45;&gt;FirechatPageModule</title>
<path fill="none" stroke="black" d="M238.28,-122.11C238.28,-122.11 238.28,-140.99 238.28,-140.99"/>
<polygon fill="black" stroke="black" points="234.78,-140.99 238.28,-150.99 241.78,-140.99 234.78,-140.99"/>
</g>
</g>
</svg>
